<svg xmlns="http://www.w3.org/2000/svg" xmlns:xlink="http://www.w3.org/1999/xlink" width="378.35" height="65.556" viewBox="0 0 378.35 65.556">
  <defs>
    <clipPath id="clip-path">
      <path id="use3459" d="M2887.33-158.068c-.344-15.546-11.35-23.766-24.833-23.766-7.395,0-14.067,2.476-18.607,7.292-4.54-4.815-11.213-7.292-18.607-7.292-13.482,0-24.489,8.255-24.833,23.8v35.564a5.879,5.879,0,0,0,5.881,5.881h5.572a1,1,0,0,0,1-1v-40.379h0c.241-7.67,5.675-11.728,12.382-11.728s12.141,4.059,12.382,11.728h0v35.46a5.879,5.879,0,0,0,5.882,5.881h5.572a1,1,0,0,0,1-1V-158h0c.241-7.67,5.675-11.728,12.382-11.728s12.141,4.059,12.382,11.728h0v35.46a5.879,5.879,0,0,0,5.881,5.881h5.572a1,1,0,0,0,1-1v-40.379C2887.364-158,2887.33-158.033,2887.33-158.068Zm125.436-22.769h-9.458a7.922,7.922,0,0,0-6.535,3.474l-10.456,15.477a3.438,3.438,0,0,1-5.709,0l-10.456-15.477a7.877,7.877,0,0,0-6.535-3.474h-9.458a.739.739,0,0,0-.619,1.135l18.642,27.653a5.921,5.921,0,0,1,0,6.6l-18.642,27.653a.729.729,0,0,0,.619,1.135h9.458a7.923,7.923,0,0,0,6.535-3.474l10.456-15.477a3.438,3.438,0,0,1,5.709,0l10.456,15.477a7.876,7.876,0,0,0,6.535,3.474h9.458a.739.739,0,0,0,.619-1.135l-18.676-27.619a5.922,5.922,0,0,1,0-6.6l18.642-27.653A.741.741,0,0,0,3012.766-180.837Zm-63.492,0H2943.7a5.936,5.936,0,0,0-5.778,4.643,29.16,29.16,0,0,0-17.885-5.709c-16.3,0-29.545,11.35-29.545,32.778s13.208,32.778,29.545,32.778a29.291,29.291,0,0,0,17.782-5.606,5.909,5.909,0,0,0,5.882,5.365h5.572a1,1,0,0,0,1-1v-62.254A1.021,1.021,0,0,0,2949.274-180.837Zm-29.235,52.314c-9.734,0-17.644-7.12-17.644-20.568s7.911-20.568,17.644-20.568,17.644,7.12,17.644,20.568S2929.772-128.523,2920.039-128.523Z" transform="translate(-2800.45 181.903)" fill="#fff"/>
    </clipPath>
  </defs>
  <g id="hbo-max-logo" transform="translate(-2600 200)">
    <path id="path3441" d="M2646.6-134.663h-17.438V-159.53h-11.281v24.867H2600v-64.145h17.851v23.938h11.281v-23.938h17.438v64.145Zm79.932.275c17.851,0,32.434-14.858,32.434-32.95a32.3,32.3,0,0,0-32.434-32.571,32.073,32.073,0,0,0-29.442,18.5c0-7.945-7.945-17.438-17.163-17.438h-29.785v64.18h27.722c11.281,0,19.226-9.63,19.226-18.091,2.511,5.228,11.385,18.367,29.442,18.367Zm-50.869-26.071c2.58,0,4.643,2.511,4.643,5.365,0,2.992-2.063,5.5-4.643,5.5h-8.874v-10.869Zm0-24.076c2.58,0,4.643,2.511,4.643,5.365s-2.063,5.365-4.643,5.365h-8.874v-10.731Zm11.729,17.2c2.063-.138,5.434-2.511,6.707-3.921a27.44,27.44,0,0,0,0,8.874c-1.41-2.1-4.643-4.574-6.707-4.953Zm22.872,0a16.316,16.316,0,0,1,16.406-16.3,16.3,16.3,0,0,1,16.2,16.544,16.324,16.324,0,0,1-16.3,16.131,16.308,16.308,0,0,1-16.3-16.372Zm16.268,12.863a12.874,12.874,0,0,0,12.795-12.863,12.814,12.814,0,0,0-12.795-12.795,12.742,12.742,0,0,0-12.864,12.795,12.8,12.8,0,0,0,12.864,12.863Z" transform="translate(0 -0.057)" fill="#fff"/>
    <g id="g888" transform="translate(2765.299 -200)">
      <path id="XMLID_1_" d="M2887.33-157.977c-.344-15.546-11.35-23.766-24.833-23.766-7.395,0-14.067,2.476-18.607,7.292-4.54-4.815-11.213-7.292-18.607-7.292-13.482,0-24.489,8.255-24.833,23.8v35.564a5.879,5.879,0,0,0,5.881,5.881h5.572a1,1,0,0,0,1-1v-40.379h0c.241-7.67,5.675-11.728,12.382-11.728s12.141,4.059,12.382,11.728h0v35.46a5.879,5.879,0,0,0,5.882,5.881h5.572a1,1,0,0,0,1-1v-40.379h0c.241-7.67,5.675-11.728,12.382-11.728s12.141,4.059,12.382,11.728h0v35.46a5.879,5.879,0,0,0,5.881,5.881h5.572a1,1,0,0,0,1-1v-40.379C2887.364-157.908,2887.33-157.942,2887.33-157.977Zm125.436-22.769h-9.458a7.922,7.922,0,0,0-6.535,3.474l-10.456,15.477a3.438,3.438,0,0,1-5.709,0l-10.456-15.477a7.877,7.877,0,0,0-6.535-3.474h-9.458a.739.739,0,0,0-.619,1.135l18.642,27.653a5.921,5.921,0,0,1,0,6.6L2953.539-117.7a.729.729,0,0,0,.619,1.135h9.458a7.923,7.923,0,0,0,6.535-3.474l10.456-15.477a3.438,3.438,0,0,1,5.709,0l10.456,15.477a7.876,7.876,0,0,0,6.535,3.474h9.458a.739.739,0,0,0,.619-1.135l-18.676-27.619a5.922,5.922,0,0,1,0-6.6l18.642-27.653a.741.741,0,0,0-.584-1.169Zm-63.492,0H2943.7a5.936,5.936,0,0,0-5.778,4.643,29.16,29.16,0,0,0-17.885-5.709c-16.3,0-29.545,11.35-29.545,32.778s13.208,32.778,29.545,32.778a29.291,29.291,0,0,0,17.782-5.606,5.909,5.909,0,0,0,5.882,5.365h5.572a1,1,0,0,0,1-1v-62.254A1.021,1.021,0,0,0,2949.274-180.746Zm-29.235,52.314c-9.734,0-17.644-7.12-17.644-20.568s7.911-20.568,17.644-20.568,17.644,7.12,17.644,20.568S2929.772-128.432,2920.039-128.432Z" transform="translate(-2800.45 181.812)" fill="#fff"/>
      <g id="g3453" transform="translate(0 0)">
        <g id="Group_4" data-name="Group 4" transform="translate(0 0)" clip-path="url(#clip-path)">
          <ellipse id="ellipse3466" cx="38.04" cy="49.528" rx="38.04" ry="49.528" transform="translate(13.242 -28.788)" fill="#fff"/>
        </g>
        <g id="Group_5" data-name="Group 5" transform="translate(0 0)" clip-path="url(#clip-path)">
          <ellipse id="ellipse3473" cx="78.281" cy="55.409" rx="78.281" ry="55.409" transform="translate(10.903 6.604)" fill="#fff"/>
        </g>
        <g id="Group_6" data-name="Group 6" transform="translate(0 0)" clip-path="url(#clip-path)">
          <circle id="circle3480" cx="42.58" cy="42.58" r="42.58" transform="translate(94.653 -38.831)" fill="#fff"/>
        </g>
      </g>
    </g>
  </g>
</svg>
